<svg width="16" height="16" viewBox="0 0 16 16" fill="none" xmlns="http://www.w3.org/2000/svg">
<g clip-path="url(#clip0_201_1564)">
<path d="M7.33005 14.4804C7.53266 14.5974 7.76248 14.659 7.99643 14.659C8.23038 14.659 8.4602 14.5974 8.66281 14.4804L13.3275 11.8149C13.5299 11.698 13.698 11.53 13.8149 11.3277C13.9319 11.1253 13.9936 10.8958 13.9938 10.6621V5.33103C13.9936 5.09731 13.9319 4.86777 13.8149 4.66542C13.698 4.46308 13.5299 4.29505 13.3275 4.17819L8.66281 1.51268C8.4602 1.39571 8.23038 1.33412 7.99643 1.33412C7.76248 1.33412 7.53266 1.39571 7.33005 1.51268L2.6654 4.17819C2.463 4.29505 2.29488 4.46308 2.17792 4.66542C2.06096 4.86777 1.99926 5.09731 1.99902 5.33103V10.6621C1.99926 10.8958 2.06096 11.1253 2.17792 11.3277C2.29488 11.53 2.463 11.698 2.6654 11.8149L7.33005 14.4804Z" stroke="#A3A3A3" stroke-width="1.33276" stroke-linecap="round" stroke-linejoin="round"/>
<path d="M7.99658 14.6603V7.99654" stroke="#A3A3A3" stroke-width="1.33276" stroke-linecap="round" stroke-linejoin="round"/>
<path d="M2.19238 4.66465L7.99654 7.99654L13.8007 4.66465" stroke="#A3A3A3" stroke-width="1.33276" stroke-linecap="round" stroke-linejoin="round"/>
<path d="M4.9978 2.84544L10.9952 6.27729" stroke="#A3A3A3" stroke-width="1.33276" stroke-linecap="round" stroke-linejoin="round"/>
</g>
<defs>
<clipPath id="clip0_201_1564">
<rect width="15.9931" height="15.9931" fill="white"/>
</clipPath>
</defs>
</svg>
