<svg width="20" height="20" viewBox="0 0 20 20" fill="none" xmlns="http://www.w3.org/2000/svg">
<path d="M18.3299 14.0974V16.597C18.3309 16.829 18.2833 17.0587 18.1904 17.2713C18.0974 17.4839 17.9611 17.6747 17.7901 17.8316C17.6191 17.9885 17.4172 18.1079 17.1974 18.1823C16.9776 18.2566 16.7447 18.2842 16.5136 18.2633C13.9497 17.9847 11.487 17.1087 9.32323 15.7055C7.31012 14.4262 5.60336 12.7195 4.32415 10.7064C2.91606 8.53277 2.03977 6.05805 1.76628 3.48269C1.74546 3.25229 1.77285 3.02008 1.84669 2.80084C1.92053 2.5816 2.03921 2.38014 2.19518 2.20928C2.35114 2.03842 2.54098 1.90191 2.7526 1.80844C2.96421 1.71496 3.19297 1.66658 3.42431 1.66636H5.92386C6.3282 1.66238 6.7202 1.80557 7.02679 2.06923C7.33337 2.33289 7.53362 2.69904 7.59022 3.09943C7.69572 3.89934 7.89137 4.68475 8.17344 5.44067C8.28554 5.73888 8.3098 6.06298 8.24335 6.37456C8.1769 6.68614 8.02252 6.97215 7.79851 7.19868L6.74037 8.25682C7.92645 10.3427 9.65355 12.0698 11.7395 13.2559L12.7976 12.1978C13.0241 11.9738 13.3101 11.8194 13.6217 11.7529C13.9333 11.6865 14.2574 11.7107 14.5556 11.8228C15.3115 12.1049 16.0969 12.3006 16.8968 12.4061C17.3016 12.4632 17.6712 12.667 17.9354 12.9789C18.1997 13.2907 18.3401 13.6888 18.3299 14.0974Z" stroke="#C9F001" stroke-width="1.66636" stroke-linecap="round" stroke-linejoin="round"/>
</svg>
