<svg width="24" height="24" viewBox="0 0 24 24" fill="none" xmlns="http://www.w3.org/2000/svg">
<g clip-path="url(#clip0_196_596)">
<path d="M9.49046 23.1296C8.17271 23.1296 7.10059 22.0575 7.10059 20.7397C7.10059 19.422 8.17271 18.3502 9.49046 18.3502C10.8082 18.3502 11.8803 19.422 11.8803 20.7397C11.8803 22.0575 10.8082 23.1296 9.49046 23.1296ZM9.49046 19.8502C8.99996 19.8502 8.60059 20.2492 8.60059 20.7397C8.60059 21.2306 8.99959 21.6296 9.49046 21.6296C9.98134 21.6296 10.3803 21.2306 10.3803 20.7397C10.3803 20.2492 9.98134 19.8502 9.49046 19.8502Z" fill="white"/>
<path d="M17.7982 23.1296C16.4804 23.1296 15.4087 22.0575 15.4087 20.7397C15.4087 19.422 16.4804 18.3502 17.7982 18.3502C19.1159 18.3502 20.1881 19.422 20.1881 20.7397C20.1881 22.0575 19.1156 23.1296 17.7982 23.1296ZM17.7982 19.8502C17.3077 19.8502 16.9087 20.2492 16.9087 20.7397C16.9087 21.2306 17.3077 21.6296 17.7982 21.6296C18.2891 21.6296 18.6881 21.2306 18.6881 20.7397C18.6881 20.2492 18.2887 19.8502 17.7982 19.8502Z" fill="white"/>
<path d="M19.5479 16.4977H7.76582C6.61944 16.4977 5.64032 15.7174 5.38457 14.5999L2.93919 3.92099C2.90694 3.77999 2.80944 3.65924 2.67819 3.59849L0.649819 2.65836C0.180319 2.44086 -0.024056 1.88361 0.193444 1.41374C0.410944 0.944235 0.968569 0.73986 1.43807 0.95736L3.46644 1.89749C4.12007 2.20011 4.60644 2.80011 4.76694 3.50249L7.21232 14.1821C7.27157 14.4416 7.49919 14.6231 7.76582 14.6231H19.5479C19.8134 14.6231 20.0407 14.4427 20.1014 14.184L22.0027 6.00411C22.0571 5.77161 21.9581 5.60249 21.8947 5.52261C21.8309 5.44236 21.6884 5.30811 21.4499 5.30811H7.57494C7.05707 5.30811 6.63744 4.88848 6.63744 4.37061C6.63744 3.85274 7.05707 3.43311 7.57494 3.43311H21.4499C22.1996 3.43311 22.8963 3.76948 23.3628 4.35636C23.8293 4.94323 23.9988 5.69848 23.8293 6.42861L21.9277 14.6089C21.6686 15.7207 20.6902 16.4977 19.5479 16.4977Z" fill="white"/>
</g>
<defs>
<clipPath id="clip0_196_596">
<rect width="24" height="24" fill="white"/>
</clipPath>
</defs>
</svg>
