<svg width="24" height="24" viewBox="0 0 24 24" fill="none" xmlns="http://www.w3.org/2000/svg">
<g clip-path="url(#clip0_183_684)">
<path d="M8.18265 10.3234H2.38562C1.79867 10.3229 1.23591 10.0895 0.820807 9.67457C0.405707 9.2596 0.172174 8.69691 0.171448 8.10996V2.38493C0.172174 1.79798 0.405707 1.23529 0.820807 0.820322C1.23591 0.405351 1.79867 0.171992 2.38562 0.171448H8.18265C8.76948 0.172174 9.33206 0.405613 9.74702 0.820564C10.162 1.23552 10.3954 1.7981 10.3961 2.38493V8.10996C10.3954 8.69679 10.162 9.25938 9.74702 9.67433C9.33206 10.0893 8.76948 10.3227 8.18265 10.3234ZM2.38562 1.88573C2.25322 1.88591 2.12628 1.93854 2.03259 2.0321C1.9389 2.12566 1.8861 2.25253 1.88573 2.38493V8.10996C1.8861 8.24236 1.9389 8.36923 2.03259 8.46279C2.12628 8.55635 2.25322 8.60898 2.38562 8.60916H8.18265C8.31499 8.60898 8.44186 8.55633 8.53543 8.46275C8.62901 8.36917 8.68167 8.2423 8.68185 8.10996V2.38493C8.68167 2.25259 8.62901 2.12573 8.53543 2.03215C8.44186 1.93857 8.31499 1.88591 8.18265 1.88573H2.38562Z" fill="#7C7C7C"/>
<path d="M8.21072 23.8286H2.4137C1.82668 23.8278 1.26392 23.5943 0.848841 23.1793C0.433761 22.7642 0.20025 22.2014 0.199524 21.6144V15.8901C0.20025 15.3031 0.433783 14.7404 0.848883 14.3254C1.26398 13.9105 1.82675 13.6771 2.4137 13.6766H8.21072C8.79732 13.6777 9.35955 13.9113 9.77421 14.3262C10.1889 14.7411 10.4221 15.3035 10.4228 15.8901V21.6144C10.4223 22.2011 10.1891 22.7637 9.77445 23.1787C9.35977 23.5938 8.79743 23.8275 8.21072 23.8286ZM2.4137 15.3909C2.28129 15.391 2.15435 15.4437 2.06066 15.5372C1.96698 15.6308 1.91417 15.7577 1.91381 15.8901V21.6144C1.91399 21.7469 1.96672 21.874 2.06042 21.9677C2.15413 22.0614 2.28117 22.1141 2.4137 22.1143H8.21072C8.34313 22.1139 8.46999 22.0611 8.56355 21.9674C8.65711 21.8737 8.70974 21.7468 8.70992 21.6144V15.8901C8.70974 15.7577 8.65709 15.6309 8.56351 15.5373C8.46993 15.4437 8.34306 15.391 8.21072 15.3909H2.4137Z" fill="#7C7C7C"/>
<path d="M21.6151 23.8286H15.8181C15.231 23.8278 14.6683 23.5943 14.2532 23.1793C13.8381 22.7642 13.6046 22.2014 13.6039 21.6144V15.8901C13.6046 15.3031 13.8381 14.7404 14.2532 14.3254C14.6683 13.9105 15.2311 13.6771 15.8181 13.6766H21.6151C22.2019 13.6773 22.7645 13.9107 23.1795 14.3257C23.5944 14.7406 23.8278 15.3032 23.8286 15.8901V21.6144C23.828 22.2014 23.5947 22.7641 23.1797 23.1792C22.7647 23.5943 22.202 23.8278 21.6151 23.8286ZM15.8181 15.3943C15.6856 15.3945 15.5587 15.4471 15.465 15.5407C15.3713 15.6342 15.3185 15.7611 15.3182 15.8935V21.6178C15.3183 21.7504 15.3711 21.8774 15.4648 21.9711C15.5585 22.0648 15.6855 22.1175 15.8181 22.1177H21.6151C21.7475 22.1174 21.8744 22.0646 21.9679 21.9709C22.0615 21.8772 22.1141 21.7502 22.1143 21.6178V15.8901C22.1141 15.7577 22.0614 15.6309 21.9679 15.5373C21.8743 15.4437 21.7474 15.391 21.6151 15.3909L15.8181 15.3943Z" fill="#7C7C7C"/>
<path d="M18.72 10.3234C17.718 10.316 16.7407 10.0121 15.9112 9.44998C15.0817 8.8879 14.4372 8.09283 14.0589 7.16499C13.6806 6.23715 13.5855 5.21809 13.7856 4.23628C13.9856 3.25446 14.4718 2.35384 15.1829 1.64795C15.8941 0.94207 16.7983 0.462523 17.7815 0.269768C18.7648 0.077013 19.7831 0.179679 20.7082 0.564823C21.6332 0.949967 22.4234 1.60035 22.9794 2.43397C23.5353 3.2676 23.832 4.24715 23.832 5.24914C23.8253 6.59939 23.2833 7.89186 22.325 8.84311C21.3667 9.79435 20.0702 10.3267 18.72 10.3234ZM18.72 1.88914C18.0571 1.89658 17.4112 2.09994 16.8637 2.47364C16.3161 2.84734 15.8913 3.37466 15.6428 3.98924C15.3942 4.60382 15.333 5.27818 15.4669 5.92745C15.6008 6.57672 15.9237 7.17189 16.3951 7.63802C16.8665 8.10416 17.4652 8.42045 18.1159 8.54707C18.7667 8.67369 19.4403 8.60498 20.0521 8.3496C20.6638 8.09422 21.1864 7.66358 21.5539 7.11187C21.9215 6.56017 22.1177 5.91207 22.1177 5.24914C22.1123 4.35283 21.7514 3.4953 21.1144 2.86473C20.4774 2.23415 19.6163 1.88206 18.72 1.88571V1.88914Z" fill="#7C7C7C"/>
</g>
<defs>
<clipPath id="clip0_183_684">
<rect width="24" height="24" fill="white"/>
</clipPath>
</defs>
</svg>
