<svg width="16" height="16" viewBox="0 0 16 16" fill="none" xmlns="http://www.w3.org/2000/svg">
<g clip-path="url(#clip0_201_1495)">
<path d="M14.5276 6.6638C14.832 8.15736 14.6151 9.7101 13.9131 11.0631C13.2112 12.4161 12.0666 13.4876 10.6703 14.0988C9.27399 14.71 7.71033 14.8241 6.24008 14.422C4.76983 14.0199 3.48187 13.1259 2.59097 11.8892C1.70008 10.6524 1.26011 9.14756 1.34444 7.62565C1.42876 6.10374 2.03228 4.65673 3.05436 3.52594C4.07643 2.39515 5.45527 1.64893 6.96094 1.41171C8.46662 1.1745 10.0081 1.46063 11.3283 2.22239" stroke="#C9F001" stroke-width="1.33276" stroke-linecap="round" stroke-linejoin="round"/>
<path d="M5.99731 7.33018L7.99645 9.32931L14.6602 2.66553" stroke="#C9F001" stroke-width="1.33276" stroke-linecap="round" stroke-linejoin="round"/>
</g>
<defs>
<clipPath id="clip0_201_1495">
<rect width="15.9931" height="15.9931" fill="white"/>
</clipPath>
</defs>
</svg>
