<svg width="16" height="16" viewBox="0 0 16 16" fill="none" xmlns="http://www.w3.org/2000/svg">
<g clip-path="url(#clip0_201_1526)">
<path d="M9.32931 11.9948V3.99828C9.32931 3.64482 9.18889 3.30582 8.93895 3.05588C8.68901 2.80594 8.35002 2.66553 7.99655 2.66553H2.66552C2.31205 2.66553 1.97306 2.80594 1.72312 3.05588C1.47318 3.30582 1.33276 3.64482 1.33276 3.99828V11.3284C1.33276 11.5052 1.40297 11.6747 1.52794 11.7996C1.65291 11.9246 1.82241 11.9948 1.99914 11.9948H3.3319" stroke="#2B7FFF" stroke-width="1.33276" stroke-linecap="round" stroke-linejoin="round"/>
<path d="M9.99559 11.9948H5.99731" stroke="#2B7FFF" stroke-width="1.33276" stroke-linecap="round" stroke-linejoin="round"/>
<path d="M12.6612 11.9948H13.994C14.1707 11.9948 14.3402 11.9246 14.4652 11.7996C14.5902 11.6747 14.6604 11.5052 14.6604 11.3284V8.89615C14.6601 8.74492 14.6084 8.59829 14.5138 8.48033L12.1948 5.58158C12.1324 5.50354 12.0534 5.4405 11.9634 5.39713C11.8734 5.35376 11.7749 5.33117 11.675 5.33102H9.32935" stroke="#2B7FFF" stroke-width="1.33276" stroke-linecap="round" stroke-linejoin="round"/>
<path d="M11.3284 13.3276C12.0644 13.3276 12.6611 12.7309 12.6611 11.9948C12.6611 11.2587 12.0644 10.662 11.3284 10.662C10.5923 10.662 9.99561 11.2587 9.99561 11.9948C9.99561 12.7309 10.5923 13.3276 11.3284 13.3276Z" stroke="#2B7FFF" stroke-width="1.33276" stroke-linecap="round" stroke-linejoin="round"/>
<path d="M4.66454 13.3276C5.40061 13.3276 5.9973 12.7309 5.9973 11.9948C5.9973 11.2587 5.40061 10.662 4.66454 10.662C3.92848 10.662 3.33179 11.2587 3.33179 11.9948C3.33179 12.7309 3.92848 13.3276 4.66454 13.3276Z" stroke="#2B7FFF" stroke-width="1.33276" stroke-linecap="round" stroke-linejoin="round"/>
</g>
<defs>
<clipPath id="clip0_201_1526">
<rect width="15.9931" height="15.9931" fill="white"/>
</clipPath>
</defs>
</svg>
