<svg width="32" height="32" viewBox="0 0 32 32" fill="none" xmlns="http://www.w3.org/2000/svg">
<path d="M0 15.9931C0 7.16035 7.16035 0 15.9931 0C24.8258 0 31.9862 7.16035 31.9862 15.9931C31.9862 24.8258 24.8258 31.9862 15.9931 31.9862C7.16035 31.9862 0 24.8258 0 15.9931Z" fill="#0A0A0A" fill-opacity="0.8"/>
<path d="M20.6478 17.3258C21.6407 16.3529 22.6469 15.1867 22.6469 13.6607C22.6469 12.6887 22.2608 11.7565 21.5734 11.0691C20.8861 10.3818 19.9539 9.99566 18.9818 9.99566C17.809 9.99566 16.9827 10.3288 15.9831 11.3284C14.9836 10.3288 14.1572 9.99566 12.9844 9.99566C12.0124 9.99566 11.0801 10.3818 10.3928 11.0691C9.70548 11.7565 9.31934 12.6887 9.31934 13.6607C9.31934 15.1934 10.3189 16.3596 11.3185 17.3258L15.9831 21.9905L20.6478 17.3258Z" stroke="#F5F5F5" stroke-width="1.33276" stroke-linecap="round" stroke-linejoin="round"/>
</svg>
