<svg width="24" height="24" viewBox="0 0 24 24" fill="none" xmlns="http://www.w3.org/2000/svg">
<path d="M23.3532 10.4389C23.3524 10.4383 23.3519 10.4376 23.3513 10.437L13.5612 0.647279C13.1439 0.229798 12.5891 0 11.9989 0C11.4088 0 10.854 0.229798 10.4365 0.647279L0.651515 10.4321C0.648219 10.4354 0.64474 10.4389 0.641627 10.4422C-0.215308 11.304 -0.213843 12.7024 0.645839 13.5621C1.0386 13.955 1.55716 14.1825 2.11178 14.2064C2.13449 14.2086 2.15719 14.2097 2.18008 14.2097H2.5701V21.4142C2.5701 22.8401 3.73026 24 5.1561 24H8.98631C9.37468 24 9.68944 23.6851 9.68944 23.2969V17.6485C9.68944 16.9979 10.2188 16.4687 10.8694 16.4687H13.1285C13.7791 16.4687 14.3083 16.9979 14.3083 17.6485V23.2969C14.3083 23.6851 14.623 24 15.0114 24H18.8416C20.2676 24 21.4276 22.8401 21.4276 21.4142V14.2097H21.7894C22.3794 14.2097 22.9342 13.9799 23.3519 13.5623C24.2125 12.7013 24.2128 11.3004 23.3532 10.4389ZM22.3574 12.568C22.2056 12.7198 22.0039 12.8035 21.7894 12.8035H20.7245C20.3361 12.8035 20.0214 13.1183 20.0214 13.5066V21.4142C20.0214 22.0646 19.4922 22.5938 18.8416 22.5938H15.7145V17.6485C15.7145 16.2226 14.5546 15.0625 13.1285 15.0625H10.8694C9.44334 15.0625 8.28318 16.2226 8.28318 17.6485V22.5938H5.1561C4.50571 22.5938 3.97635 22.0646 3.97635 21.4142V13.5066C3.97635 13.1183 3.66159 12.8035 3.27322 12.8035H2.22659C2.21561 12.8028 2.2048 12.8022 2.19363 12.802C1.98416 12.7984 1.78769 12.7152 1.64047 12.5678C1.32736 12.2547 1.32736 11.7451 1.64047 11.4318C1.64029 11.432 1.64065 11.4318 1.64047 11.4318L1.64139 11.4309L11.4311 1.64154C11.5827 1.48975 11.7843 1.40625 11.9989 1.40625C12.2134 1.40625 12.415 1.48975 12.5668 1.64154L22.3543 11.4289C22.3558 11.4304 22.3574 11.4318 22.3589 11.4333C22.6704 11.747 22.6698 12.2555 22.3574 12.568Z" fill="#898989"/>
</svg>
