<svg width="20" height="20" viewBox="0 0 20 20" fill="none" xmlns="http://www.w3.org/2000/svg">
<path d="M16.6637 8.33181C16.6637 12.4919 12.0487 16.8244 10.499 18.1625C10.3546 18.2711 10.1788 18.3298 9.99821 18.3298C9.81758 18.3298 9.64184 18.2711 9.49747 18.1625C7.94775 16.8244 3.33276 12.4919 3.33276 8.33181C3.33276 6.56403 4.03501 4.86864 5.28503 3.61863C6.53504 2.36862 8.23042 1.66637 9.99821 1.66637C11.766 1.66637 13.4614 2.36862 14.7114 3.61863C15.9614 4.86864 16.6637 6.56403 16.6637 8.33181Z" stroke="#C9F001" stroke-width="1.66636" stroke-linecap="round" stroke-linejoin="round"/>
<path d="M9.99808 10.8313C11.3785 10.8313 12.4976 9.71226 12.4976 8.3318C12.4976 6.95134 11.3785 5.83226 9.99808 5.83226C8.61762 5.83226 7.49854 6.95134 7.49854 8.3318C7.49854 9.71226 8.61762 10.8313 9.99808 10.8313Z" stroke="#C9F001" stroke-width="1.66636" stroke-linecap="round" stroke-linejoin="round"/>
</svg>
