<svg width="21" height="21" viewBox="0 0 21 21" fill="none" xmlns="http://www.w3.org/2000/svg">
<path d="M8.99805 0C4.03933 0 0 4.03932 0 8.99806C0 13.9568 4.03933 18.004 8.99805 18.004C11.1161 18.004 13.064 17.2617 14.6035 16.0293L18.3516 19.7754C18.5407 19.9567 18.7933 20.0567 19.0553 20.0541C19.3173 20.0514 19.5679 19.9462 19.7533 19.7611C19.9387 19.5759 20.0442 19.3256 20.0472 19.0636C20.0503 18.8016 19.9506 18.5488 19.7695 18.3595L16.0215 14.6114C17.2549 13.0695 17.998 11.1185 17.998 8.99806C17.998 4.03932 13.9568 0 8.99805 0ZM8.99805 2.00003C12.8759 2.00003 15.9961 5.12023 15.9961 8.99806C15.9961 12.8759 12.8759 16.0039 8.99805 16.0039C5.12021 16.0039 2 12.8759 2 8.99806C2 5.12023 5.12021 2.00003 8.99805 2.00003Z" fill="white"/>
</svg>
